<?xml version="1.0" encoding="UTF-8"?>
<svg xmlns="http://www.w3.org/2000/svg" xmlns:xlink="http://www.w3.org/1999/xlink" width="12pt" height="12pt" viewBox="0 0 12 12" version="1.1">
<g id="surface1">
<path style=" stroke:none;fill-rule:nonzero;fill:rgb(0%,0%,0%);fill-opacity:1;" d="M 10.625 4.792969 L 7.082031 4.792969 C 6.96875 4.792969 6.875 4.699219 6.875 4.582031 L 6.875 1.042969 C 6.875 0.464844 6.410156 0 5.832031 0 C 5.257812 0 4.792969 0.464844 4.792969 1.042969 L 4.792969 4.582031 C 4.792969 4.699219 4.699219 4.792969 4.582031 4.792969 L 1.042969 4.792969 C 0.464844 4.792969 0 5.257812 0 5.832031 C 0 6.410156 0.464844 6.875 1.042969 6.875 L 4.582031 6.875 C 4.699219 6.875 4.792969 6.96875 4.792969 7.082031 L 4.792969 10.625 C 4.792969 11.199219 5.257812 11.667969 5.832031 11.667969 C 6.410156 11.667969 6.875 11.199219 6.875 10.625 L 6.875 7.082031 C 6.875 6.96875 6.96875 6.875 7.082031 6.875 L 10.625 6.875 C 11.199219 6.875 11.667969 6.410156 11.667969 5.832031 C 11.667969 5.257812 11.199219 4.792969 10.625 4.792969 Z M 10.625 4.792969 "/>
</g>
</svg>
