<?xml version="1.0" encoding="UTF-8"?>
<svg xmlns="http://www.w3.org/2000/svg" xmlns:xlink="http://www.w3.org/1999/xlink" width="12pt" height="12pt" viewBox="0 0 12 12" version="1.1">
<g id="surface1">
<path style=" stroke:none;fill-rule:nonzero;fill:rgb(0%,0%,0%);fill-opacity:1;" d="M 11.605469 2.367188 L 7.964844 6.003906 L 11.605469 9.644531 C 12.144531 10.1875 12.144531 11.066406 11.605469 11.605469 C 11.335938 11.878906 10.980469 12.011719 10.625 12.011719 C 10.269531 12.011719 9.917969 11.878906 9.644531 11.605469 L 6.003906 7.964844 L 2.367188 11.605469 C 2.09375 11.878906 1.738281 12.011719 1.386719 12.011719 C 1.03125 12.011719 0.675781 11.878906 0.40625 11.605469 C -0.136719 11.066406 -0.136719 10.1875 0.40625 9.644531 L 4.046875 6.003906 L 0.40625 2.367188 C -0.136719 1.824219 -0.136719 0.945312 0.40625 0.402344 C 0.945312 -0.136719 1.824219 -0.136719 2.363281 0.402344 L 6.003906 4.046875 L 9.644531 0.402344 C 10.1875 -0.136719 11.066406 -0.136719 11.605469 0.402344 C 12.144531 0.945312 12.144531 1.824219 11.605469 2.367188 Z M 11.605469 2.367188 "/>
</g>
</svg>
